<svg xmlns="http://www.w3.org/2000/svg" viewBox="0 0 50 50">
  <defs>
    <style>
      .cls-1 {
        fill: rgba(50,50,65,0.8);
      }

      .cls-2 {
        fill: rgba(228,228,228,0.8);
      }
    </style>
  </defs>
  <g id="SettingsButton" transform="translate(-1080 -47)">
    <path id="Path_1" data-name="Path 1" class="cls-1" d="M25,0A25,25,0,1,1,0,25,25,25,0,0,1,25,0Z" transform="translate(1080 47)"/>
    <g id="Cog_font_awesome" transform="translate(1095.491 1470.424)">
      <path id="path3029" class="cls-2" d="M13.333-1398a3.211,3.211,0,0,0-.977-2.357,3.211,3.211,0,0,0-2.357-.977,3.211,3.211,0,0,0-2.357.977A3.211,3.211,0,0,0,6.667-1398a3.212,3.212,0,0,0,.977,2.357,3.212,3.212,0,0,0,2.357.977,3.212,3.212,0,0,0,2.357-.977A3.212,3.212,0,0,0,13.333-1398ZM20-1399.419v2.891a.5.5,0,0,1-.1.3.4.4,0,0,1-.26.169l-2.409.365a8.342,8.342,0,0,1-.508,1.185q.456.651,1.393,1.8a.5.5,0,0,1,.13.326.435.435,0,0,1-.117.3,13.234,13.234,0,0,1-1.289,1.406q-.937.924-1.224.924a.636.636,0,0,1-.339-.117l-1.8-1.406a7.428,7.428,0,0,1-1.185.495,21.3,21.3,0,0,1-.378,2.422.438.438,0,0,1-.469.365H8.555a.492.492,0,0,1-.319-.111.386.386,0,0,1-.15-.28l-.365-2.4a8.055,8.055,0,0,1-1.172-.482l-1.836,1.393a.468.468,0,0,1-.326.117.449.449,0,0,1-.326-.143,17.189,17.189,0,0,1-2.148-2.187.509.509,0,0,1-.091-.3.5.5,0,0,1,.1-.3q.2-.273.664-.866t.7-.918a6.445,6.445,0,0,1-.534-1.289l-2.383-.352a.411.411,0,0,1-.273-.163.493.493,0,0,1-.1-.306v-2.891a.5.5,0,0,1,.1-.3.392.392,0,0,1,.247-.169l2.422-.365a6.432,6.432,0,0,1,.508-1.2q-.521-.742-1.393-1.8a.489.489,0,0,1-.13-.312.549.549,0,0,1,.117-.3,12.923,12.923,0,0,1,1.283-1.4q.944-.931,1.23-.931a.555.555,0,0,1,.339.13l1.8,1.393a7.439,7.439,0,0,1,1.185-.495,21.3,21.3,0,0,1,.378-2.422.438.438,0,0,1,.469-.365h2.891a.492.492,0,0,1,.319.111.386.386,0,0,1,.15.28l.365,2.4a8.041,8.041,0,0,1,1.172.482l1.849-1.393a.422.422,0,0,1,.313-.117.5.5,0,0,1,.326.13,17.816,17.816,0,0,1,2.148,2.214.42.42,0,0,1,.091.286.5.5,0,0,1-.1.3q-.2.274-.664.866t-.7.918a7.843,7.843,0,0,1,.534,1.276l2.383.365a.41.41,0,0,1,.273.163A.493.493,0,0,1,20-1399.419Z"/>
    </g>
  </g>
</svg>
