<svg xmlns="http://www.w3.org/2000/svg" viewBox="0 0 50 50">
  <defs>
    <style>
      .cls-1 {
        fill: rgba(208,27,70,0.8);
      }

      .cls-2, .cls-3 {
        fill: none;
      }

      .cls-3 {
        stroke: #c1c2c5;
        stroke-width: 4px;
      }

      .cls-4, .cls-5 {
        stroke: none;
      }

      .cls-5 {
        fill: #c1c2c5;
      }
    </style>
  </defs>
  <g id="SubmitSearch" transform="translate(-960 -200)">
    <g id="RandomButton" transform="translate(-120 153)">
      <path id="Path_1" data-name="Path 1" class="cls-1" d="M25,0A25,25,0,1,1,0,25,25,25,0,0,1,25,0Z" transform="translate(1080 47)"/>
    </g>
    <g id="Group_22" data-name="Group 22" transform="translate(-0.3 2)">
      <g id="Path_4" data-name="Path 4" class="cls-2" transform="translate(978.56 213)">
        <path class="cls-4" d="M7.87,0A7.87,7.87,0,1,1,0,7.87,7.87,7.87,0,0,1,7.87,0Z"/>
        <path class="cls-5" d="M 7.869762420654297 11.73952198028564 C 10.00355243682861 11.73952198028564 11.73952198028564 10.00355243682861 11.73952198028564 7.869762420654297 C 11.73952198028564 5.73597240447998 10.00355243682861 4.000002384185791 7.869762420654297 4.000002384185791 C 5.73597240447998 4.000002384185791 4.000002384185791 5.73597240447998 4.000002384185791 7.869762420654297 C 4.000002384185791 10.00355243682861 5.73597240447998 11.73952198028564 7.869762420654297 11.73952198028564 M 7.869762420654297 15.73952198028564 C 3.523412466049194 15.73952198028564 2.420654254819965e-06 12.21611213684082 2.420654254819965e-06 7.869762420654297 C 2.420654254819965e-06 3.523412466049194 3.523412466049194 2.420654254819965e-06 7.869762420654297 2.420654254819965e-06 C 12.21611213684082 2.420654254819965e-06 15.73952198028564 3.523412466049194 15.73952198028564 7.869762420654297 C 15.73952198028564 12.21611213684082 12.21611213684082 15.73952198028564 7.869762420654297 15.73952198028564 Z"/>
      </g>
      <line id="Line_1" data-name="Line 1" class="cls-3" x1="5.695" y2="5.821" transform="translate(976.8 225.679)"/>
    </g>
  </g>
</svg>
